<svg viewBox="-51.2 -51.2 614.40 614.40" xmlns="http://www.w3.org/2000/svg" fill="#e0dfe0"><g id="SVGRepo_bgCarrier" stroke-width="0"><path transform="translate(-51.2, -51.2), scale(19.2)" d="M16,30.130424441221884C18.44693354123116,29.489646723469114,19.18364788786974,26.3632406709953,20.922814087394407,24.52656411558293C22.120213641407368,23.26202959960745,23.315077227029605,22.11195425178997,24.65083411228398,20.994561403441956C26.775732626289713,19.217032551278738,30.15610860374667,18.59885695137573,31.115663219900693,16C32.04395889263175,13.485804745874029,30.736741123753195,10.58545039556395,29.33825478993039,8.29915500651388C27.955088367987052,6.037905156375112,25.95367504315449,3.7268032579857695,23.339607625871025,3.287426684371413C20.716133882036,2.8464690805574526,18.54999139683342,5.299215063237097,16,6.057240108356757C14.284895936086366,6.567081763919791,12.580610438367987,6.749376453001803,10.810686580508072,7.011845501040989C7.932401926627769,7.438677779579354,4.449169807411447,6.1297522677401135,2.2980242142934895,8.089160591692602C0.2858945640052908,9.921943829730786,0.31354591611282556,13.352067072894897,0.9429991238695727,15.999999999999996C1.5390046120834584,18.50722776137919,4.09292438150621,19.914709561817574,5.605183265302152,22.001450239954618C6.936630499742275,23.838691954762876,7.536144394160164,26.16634695001374,9.32347576144863,27.56407919913607C11.234177103779562,29.058289468980366,13.653539991993654,30.74489118639223,16,30.130424441221884" fill="#625ad3" strokewidth="0"></path></g><g id="SVGRepo_tracerCarrier" stroke-linecap="round" stroke-linejoin="round"></g><g id="SVGRepo_iconCarrier"><path fill="#e0dfe0" d="M281.293 94.283a9 9 0 0 1-.23.203c-.027.023-.048.046-.073.07.113-.103.143-.126.303-.273zm.754.62c-.922-.026-1.59.26-1.79.333-18.276 16.014-26.02 33.42-43.35 51.993-17.25 18.485-43.688 36.204-96.677 51.225l-31.087 42.13a9 9 0 0 1-7.163 3.657l-50.75.45-14.69-8.344-2.622 119.744 14.603-8.426h57.28a9 9 0 0 1 6.934 3.264c13.526 16.35 20.025 32.04 37.946 39.838l200.556 61.878c12.478-.538 22.443-2.015 28.625-5.568 5.266-3.025 8.892-7.468 10.952-16.584-5.457-2.305-23.53-9.945-47.185-19.853-13.495-5.652-27.03-11.294-37.236-15.494-5.103-2.1-9.382-3.842-12.37-5.027-1.492-.593-2.672-1.05-3.397-1.317-.208-.077-.253-.09-.367-.13-.157.023-.3.105-1.897-.677-.994-.486-4.692-10.586-4.692-10.588 0 0 5.642-6.027 6.47-6.234 2.54-.635 2.98-.25 3.483-.18.2.028.253.05.388.074.13.016.294.036.637.073.89.095 2.327.236 4.183.41 3.713.345 9.13.827 15.67 1.397 13.082 1.14 30.68 2.633 48.37 4.112 17.69 1.477 35.475 2.942 48.945 4.03 6.734.544 12.392.992 16.406 1.3 2.006.155 3.606.275 4.702.352.445.03.74.05 1 .065 7.954-.59 12.096-2.93 14.38-5.373 2.315-2.48 3.274-5.563 3.075-9.477-.392-7.7-6.855-16.7-13.162-18.697l-125.047-16.39a9 9 0 0 1 .357-17.886s34.4-3.114 69.246-6.35c17.425-1.62 34.963-3.27 48.35-4.575 6.695-.654 12.355-1.22 16.42-1.652 2.03-.215 3.67-.397 4.798-.533.516-.062 1.142-.195 1.516-.27 10.906-3.095 16.196-7.17 18.164-10.054 2.01-2.944 1.993-5.088.517-8.644-2.946-7.1-15.285-15.783-23.27-16.322l-140.36-3.662a9 9 0 0 1-1.555-17.817s30.514-6.195 61.904-12.542c15.695-3.174 31.608-6.386 44.04-8.88 12.434-2.496 20.85-4.184 23.35-4.617 9.49-1.643 13.86-5.275 16.143-9.164 2.282-3.888 2.655-8.88.996-14.175-2.902-9.267-11.46-17.814-23.172-18.067-1.672-.036-3.41.098-5.204.422a9 9 0 0 1-.19.03l-148.954 23.665c-7.51 10.38-14.5 15.897-23.953 22.977-2.022 57.078-12.448 85.543-27.33 100.578-15.283 15.436-34.4 14.424-40.335 15.908l-4.368-17.46c12.134-3.035 21.968-1.066 31.91-11.11 9.943-10.044 20.786-34.636 22.338-92.803a9 9 0 0 1 3.606-6.965c12.425-9.295 17.212-12.277 25.073-23.886l35.527-78.43c-1.064-7.994-5.013-11.687-9.64-13.893-2.5-1.192-5.197-1.74-7.043-1.79z"></path></g></svg>