<svg viewBox="-51.2 -51.2 614.40 614.40" xmlns="http://www.w3.org/2000/svg" fill="#e0dfe0" transform="matrix(-1, 0, 0, 1, 0, 0)"><g id="SVGRepo_bgCarrier" stroke-width="0"><path transform="translate(-51.2, -51.2), scale(19.2)" d="M16,26.986282496468014C18.234706492475357,27.307898593195187,19.86195895092352,29.91121065248301,22.11227661069095,29.7283980398865C24.213601295050736,29.55768940513266,26.787344239910595,28.146182330012508,27.191733343407314,26.07708196510693C27.705424822084208,23.448724235413884,23.725543634553816,21.30926694971385,24.270199987064952,18.68715086758253C24.73069447946959,16.47021167519073,29.266121239854716,16.814736416864722,29.58141557274933,14.572535702400835C29.852775400368117,12.642773141248107,27.01787609998469,11.670140189185272,25.41220123507285,10.565863083263764C24.150312027511035,9.69801904299696,22.606598355489695,9.46302053962061,21.216695908890056,8.819834066407793C20.070676268664144,8.289505961415365,18.990912110803578,7.713521842278997,17.894515622543647,7.087004759303854C16.402875656240965,6.234632528505956,15.160480381509243,5.009057116211239,13.541574355824022,4.434016692495716C11.299544366397178,3.637640711031797,8.681048623667904,1.9034777948438713,6.6128752725601565,3.0797312399439036C4.658011428514616,4.191541006774355,5.734770352366542,7.478582618900441,4.6883377569806015,9.469208759010616C3.6920658800359574,11.364414288394187,0.9122017865514136,12.261400728191555,0.6680552526217411,14.38854767219119C0.4245619914593143,16.510002922976593,2.4850852348589942,18.1768649348649,3.4715300816571,20.070746640131077C4.327789243216493,21.71468402427131,4.8992110118699905,23.500993053693627,6.134261216135691,24.883151100977468C7.371250420549212,26.267479104307416,8.808183867337274,27.68794236683643,10.623863476552145,28.075000333193422C12.431859498034987,28.460420348765048,14.170231883316827,26.72294461223803,16,26.986282496468014" fill="#625ad3" strokewidth="0"></path></g><g id="SVGRepo_tracerCarrier" stroke-linecap="round" stroke-linejoin="round"></g><g id="SVGRepo_iconCarrier"><path fill="#e0dfe0" d="M281.293 94.283a9 9 0 0 1-.23.203c-.027.023-.048.046-.073.07.113-.103.143-.126.303-.273zm.754.62c-.922-.026-1.59.26-1.79.333-18.276 16.014-26.02 33.42-43.35 51.993-17.25 18.485-43.688 36.204-96.677 51.225l-31.087 42.13a9 9 0 0 1-7.163 3.657l-50.75.45-14.69-8.344-2.622 119.744 14.603-8.426h57.28a9 9 0 0 1 6.934 3.264c13.526 16.35 20.025 32.04 37.946 39.838l200.556 61.878c12.478-.538 22.443-2.015 28.625-5.568 5.266-3.025 8.892-7.468 10.952-16.584-5.457-2.305-23.53-9.945-47.185-19.853-13.495-5.652-27.03-11.294-37.236-15.494-5.103-2.1-9.382-3.842-12.37-5.027-1.492-.593-2.672-1.05-3.397-1.317-.208-.077-.253-.09-.367-.13-.157.023-.3.105-1.897-.677-.994-.486-4.692-10.586-4.692-10.588 0 0 5.642-6.027 6.47-6.234 2.54-.635 2.98-.25 3.483-.18.2.028.253.05.388.074.13.016.294.036.637.073.89.095 2.327.236 4.183.41 3.713.345 9.13.827 15.67 1.397 13.082 1.14 30.68 2.633 48.37 4.112 17.69 1.477 35.475 2.942 48.945 4.03 6.734.544 12.392.992 16.406 1.3 2.006.155 3.606.275 4.702.352.445.03.74.05 1 .065 7.954-.59 12.096-2.93 14.38-5.373 2.315-2.48 3.274-5.563 3.075-9.477-.392-7.7-6.855-16.7-13.162-18.697l-125.047-16.39a9 9 0 0 1 .357-17.886s34.4-3.114 69.246-6.35c17.425-1.62 34.963-3.27 48.35-4.575 6.695-.654 12.355-1.22 16.42-1.652 2.03-.215 3.67-.397 4.798-.533.516-.062 1.142-.195 1.516-.27 10.906-3.095 16.196-7.17 18.164-10.054 2.01-2.944 1.993-5.088.517-8.644-2.946-7.1-15.285-15.783-23.27-16.322l-140.36-3.662a9 9 0 0 1-1.555-17.817s30.514-6.195 61.904-12.542c15.695-3.174 31.608-6.386 44.04-8.88 12.434-2.496 20.85-4.184 23.35-4.617 9.49-1.643 13.86-5.275 16.143-9.164 2.282-3.888 2.655-8.88.996-14.175-2.902-9.267-11.46-17.814-23.172-18.067-1.672-.036-3.41.098-5.204.422a9 9 0 0 1-.19.03l-148.954 23.665c-7.51 10.38-14.5 15.897-23.953 22.977-2.022 57.078-12.448 85.543-27.33 100.578-15.283 15.436-34.4 14.424-40.335 15.908l-4.368-17.46c12.134-3.035 21.968-1.066 31.91-11.11 9.943-10.044 20.786-34.636 22.338-92.803a9 9 0 0 1 3.606-6.965c12.425-9.295 17.212-12.277 25.073-23.886l35.527-78.43c-1.064-7.994-5.013-11.687-9.64-13.893-2.5-1.192-5.197-1.74-7.043-1.79z"></path></g></svg>