<svg viewBox="-51.2 -51.2 614.40 614.40" xmlns="http://www.w3.org/2000/svg" fill="#e0dfe0"><g id="SVGRepo_bgCarrier" stroke-width="0"><path transform="translate(-51.2, -51.2), scale(19.2)" d="M16,26.37952743843198C18.318304959516013,27.39283644226386,20.71354643319959,29.01380644072365,23.174578744918108,28.42673490910191C25.65607832709464,27.83478097436881,28.406210047436613,25.87638161769307,28.721612885201708,23.344826623797417C29.07222616013186,20.5306579455289,25.539099630932807,18.715905550764855,24.722807981073856,16C24.217377079310214,14.318367470909257,25.353118333865034,12.538541689866475,24.95935375277778,10.827314699068669C24.48379048656189,8.760605969874298,24.15547102684363,6.101035717237223,22.23700891900808,5.197183665017773C20.27546498920719,4.2730343168352265,18.1549513211203,6.846868016042194,16,6.606261678040028C13.416641897402286,6.317822525506818,11.116945104906348,2.3455617886783307,8.903474502265457,3.7084572807157468C6.655566491634167,5.092556843885424,9.158978918721976,9.024658054376731,8.126468349282767,11.454214381985363C7.283046619279053,13.438833873179629,3.884097838529444,13.853293723060956,3.679826205596328,15.999999999999998C3.4812376267371823,18.08698262526211,5.670601614862008,19.652354606063923,7.211061424306612,21.074296052567654C8.476698264992274,22.242558586234033,10.242247982623589,22.528565703202258,11.716832733713087,23.41866332252482C13.228510156552296,24.331151041022316,14.382070283609975,25.6723457786354,16,26.37952743843198" fill="#625ad3" strokewidth="0"></path></g><g id="SVGRepo_tracerCarrier" stroke-linecap="round" stroke-linejoin="round"></g><g id="SVGRepo_iconCarrier"><path fill="#e0dfe0" d="M204.902 160.246c-5.972.13-11.88 1.138-17.752 2.832-27.015 7.795-53.963 32.7-75.966 60.47a9 9 0 0 1-6.8 3.407l-69.253 1.97-.253-8.943-.018.002-.85 114.86 74.412.095a9 9 0 0 1 8.97 8.402c-.075-1.108 1.74 3.838 6.174 8.623 4.435 4.785 10.74 10.224 17.266 14.94 5.005 3.62 10.184 6.83 14.64 9.115.036-1.62.186-3.224.434-4.776 1.223-7.632 4.523-15.054 8.897-21.765 4.373-6.713 9.798-12.694 16.252-16.837 4.025-2.585 8.888-4.538 13.933-4.756 7.334-15.483 18.572-34.855 42.817-41.547 1.444-.4 2.48-.502 3.33-.48.848.02 1.51.166 2.203.265.41.06.805.144 1.205.22-12.94-12.258-21.842-26.238-28.496-40.837-13.878 27.166-40.78 43.774-63.05 55.62l-8.45-15.894c27.485-14.618 56.812-33.796 61.986-68.01a9 9 0 0 1 17.488-1.337c7.503 24.018 17.674 45.35 38.63 62.396 8.675 4.772 23.866 1.712 29.88-15.262-6.092-22.897-9.235-39.687-19.975-61.64-24.177-30.83-46.322-41.594-67.653-41.134zm223.19 19.807c-4.44.05-9.442.51-14.994 1.5L294.773 206.97c5.792 14.422 8.966 27.285 12.49 41.184 6.443-1.353 28.548-5.998 54.508-11.513 15.013-3.19 30.158-6.427 41.8-8.958 5.82-1.266 10.77-2.355 14.364-3.168 1.796-.407 3.258-.746 4.287-.994.765-.185 1.58-.44 1.548-.416 12.818-4.623 21.502-10.793 26.402-16.57 4.948-5.83 5.98-10.82 5.242-14.368-.738-3.548-3.162-6.923-9.892-9.523-4.2-1.623-10.03-2.674-17.428-2.59zm-117.8 86.967c-5.612 18.07-19.827 28.805-34.5 30.886 2.103.942 4.218 1.908 6.32 2.895 8.66 4.067 17.03 8.38 23.474 12.36 1.583.978 3.04 1.92 4.393 2.877 47.003 6.104 102.48 8.05 137.41 5.172 7.462-.616 11.91-3.012 14.387-5.564 2.477-2.55 3.398-5.367 3.05-8.94-.693-7.148-8.034-17.736-26.063-22.567-19.776-5.3-49.118-9.882-75.577-12.93-21.77-2.506-42-3.942-52.894-4.19zm-68.81 37.082c-15.446 4.734-22.93 16.487-29.154 29.4l57.852 29.73c2.502 1.082 4 .894 6.99-.753 3.02-1.666 6.802-5.25 10.228-9.757 5.547-7.297 9.667-16.036 12.07-21.897-1.042-.763-1.74-1.362-3.34-2.35-5.423-3.35-13.42-7.51-21.667-11.382-8.246-3.873-16.812-7.504-23.49-9.983-3.34-1.238-6.233-2.19-8.185-2.715-.634-.17-.927-.217-1.303-.293zm-45.564 41.722c-.318-.025-.7-.002-1.168.102-.95.21-2.23.748-3.97 1.865-3.48 2.234-7.666 6.558-10.897 11.517-3.232 4.958-5.53 10.575-6.203 14.785-.675 4.21.093 6.007.888 6.77.166.158 4.185 2.892 9.323 5.35 5.138 2.456 11.7 5.17 18.594 7.65 13.19 4.752 28 8.44 35.434 8.833 10.002-2.946 14.492-6.77 16.865-10.988 1.98-3.522 2.727-8.188 2.492-13.984l-60.584-31.71c-.202-.09-.454-.163-.772-.19z"></path></g></svg>