<svg viewBox="-6.4 -6.4 76.80 76.80" xmlns="http://www.w3.org/2000/svg" xmlns:xlink="http://www.w3.org/1999/xlink" aria-hidden="true" role="img" class="iconify iconify--emojione-monotone" preserveAspectRatio="xMidYMid meet" fill="#e0dfe0"><g id="SVGRepo_bgCarrier" stroke-width="0"><path transform="translate(-6.4, -6.4), scale(2.4)" d="M16,28.04804215207696C18.014797417507026,28.458754130058797,20.096120145702812,28.1582518083058,22.05802370014559,27.542599791728627C24.24516785883339,26.85626650649047,27.20799884611908,26.433945414944354,27.99940176784588,24.282589013789433C28.863544271213133,21.933496718207863,25.79731306341896,19.699767915819454,25.86354052203371,17.197650651778467C25.920639094768656,15.040428744422973,28.792430995832802,13.429654476858472,28.34252682551391,11.31909700497752C27.909925554094528,9.28970962434439,25.702221401232688,7.946316656683362,23.744723981593445,7.258013777993774C21.920889376785084,6.616709939659908,19.83941896394061,8.420892961901162,18.046104249958688,7.698628733675665C15.790290963336801,6.790091470372308,15.178849731324199,3.0201470621210564,12.754273137665368,2.8315684726885912C10.628320214760759,2.666216219247845,9.684293305780553,5.672779496931088,7.949948703207717,6.913370484183153C5.983961600234219,8.319657260977436,2.080678504216767,8.22691741917716,1.848055895130587,10.632875546282976C1.5796810606314102,13.408610100677732,6.701855058706385,14.320803528176194,6.965333005847546,17.097007184182683C7.24048233250341,19.99618935444791,1.8835924108693858,22.23820670365503,3.196189295323217,24.83783241272645C4.405304570222683,27.23251061978886,8.510882621288449,24.65907215493953,11.112961843914205,25.31147324518555C12.950630716780596,25.77221908479892,14.143628787884015,27.669625004143505,16,28.04804215207696" fill="#625ad3" strokewidth="0"></path></g><g id="SVGRepo_tracerCarrier" stroke-linecap="round" stroke-linejoin="round"></g><g id="SVGRepo_iconCarrier"> <g fill-rule="evenodd"> <path d="M30.249 2.065C18.612 2.789 12.531 9.379 12 21.296h11.739c.147-4.128 2.451-7.214 6.741-7.669c4.211-.447 8.206.556 9.416 3.435c1.307 3.11-1.627 6.724-3.022 8.241c-2.582 2.813-6.776 4.865-8.95 7.9c-2.131 2.974-2.51 6.887-2.674 11.676h10.346c.145-3.062.349-5.995 1.742-7.898c2.266-3.092 5.65-4.541 8.486-6.983c2.709-2.334 5.559-5.147 6.043-9.501C53.32 7.466 42.683 1.289 30.249 2.065" fill="#e0dfe0"> </path> <ellipse cx="30.515" cy="55.567" rx="6.532" ry="6.433" fill="#e0dfe0"> </ellipse> </g> </g></svg>