<svg viewBox="-6.4 -6.4 76.80 76.80" xmlns="http://www.w3.org/2000/svg" xmlns:xlink="http://www.w3.org/1999/xlink" aria-hidden="true" role="img" class="iconify iconify--emojione-monotone" preserveAspectRatio="xMidYMid meet" fill="#e0dfe0"><g id="SVGRepo_bgCarrier" stroke-width="0"><path transform="translate(-6.4, -6.4), scale(2.4)" d="M16,30.36482789504685C18.188807936803734,29.99047486759021,17.996086374430064,25.920003778008432,20.098693432021367,25.205816173279672C22.519026620172056,24.38370727944238,26.176255221925974,28.563821105789355,27.583868839777878,26.43016235195173C29.133369875890267,24.081430847899515,24.174965101356698,21.528244308939016,24.376409341479118,18.721660378755875C24.51421816767331,16.80166486635512,27.946179509205674,16.558061270340236,28.426242552141638,14.693949279331347C28.859996777050604,13.009657052088556,27.92025064148315,11.045362026349874,26.662693027205513,9.843891310456556C25.379164840885437,8.617608306498076,22.851219196453748,9.529765534546023,21.651507828262304,8.221366801778462C20.024685965597115,6.44716367260545,21.078679647410965,2.8868741344558124,19.06886876249183,1.562107617943072C17.378663620226714,0.4480091744964516,15.103861836145672,2.06925469728826,13.156376280611028,2.6218022297355166C11.295787545300618,3.1496950871039466,9.26985330561662,3.46308316005571,7.827518079336551,4.751543639021293C6.405245440642753,6.022081896619958,5.838506442891293,7.962411124181698,5.17602429588497,9.75077471352721C4.57773195091141,11.365858607289328,4.069033816978045,13.030192703966447,4.12306212687621,14.751683527547366C4.174439174328679,16.388697824289444,4.543208651602907,18.074488466005523,5.479436957768884,19.418338147880874C6.367520627727048,20.69308165808232,8.275310722979034,20.869393586963195,9.235831440913767,22.09048472691353C10.286419191446928,23.42607631797754,10.150145922678227,25.407763624720236,11.22564421255571,26.723378670302274C12.506429406309799,28.290113166229307,14.005335772788111,30.705976416879533,16,30.36482789504685" fill="#625ad3" strokewidth="0"></path></g><g id="SVGRepo_tracerCarrier" stroke-linecap="round" stroke-linejoin="round"></g><g id="SVGRepo_iconCarrier"> <g fill-rule="evenodd"> <path d="M30.249 2.065C18.612 2.789 12.531 9.379 12 21.296h11.739c.147-4.128 2.451-7.214 6.741-7.669c4.211-.447 8.206.556 9.416 3.435c1.307 3.11-1.627 6.724-3.022 8.241c-2.582 2.813-6.776 4.865-8.95 7.9c-2.131 2.974-2.51 6.887-2.674 11.676h10.346c.145-3.062.349-5.995 1.742-7.898c2.266-3.092 5.65-4.541 8.486-6.983c2.709-2.334 5.559-5.147 6.043-9.501C53.32 7.466 42.683 1.289 30.249 2.065" fill="#e0dfe0"> </path> <ellipse cx="30.515" cy="55.567" rx="6.532" ry="6.433" fill="#e0dfe0"> </ellipse> </g> </g></svg>